# xmcd CD database file
#
# Track frame offsets:
#	150
#	48590
#	71750
#	123185
#	158022
#	205787
#	246355
#
# Disc length: 3779 seconds
#
# Revision: 0
# Processed by: cddbd v1.5.1PL0 Copyright (c) Steve Scherf et al.
# Submitted via: CDex 1.51
#
DISCID=5e0ec107
DTITLE=Hal Crook Jerry Bergonzi - Conjunction
DYEAR=1900
DGENRE=Jazz
TTITLE0=Conjunction
TTITLE1=Fused
TTITLE2=Red's Blues
TTITLE3=I Remember You
TTITLE4=Arbonius Unt
TTITLE5=Geraldine
TTITLE6=Ganz
EXTD=
EXTT0=
EXTT1=
EXTT2=
EXTT3=
EXTT4=
EXTT5=
EXTT6=
PLAYORDER=
